<?xml version="1.0" encoding="UTF-8" ?>
<!DOCTYPE svg PUBLIC "-//W3C//DTD SVG 1.1//EN" "http://www.w3.org/Graphics/SVG/1.1/DTD/svg11.dtd">
<svg width="2274pt" height="404pt" viewBox="0 0 2274 404" version="1.1" xmlns="http://www.w3.org/2000/svg">
<g id="#0f0c45ff">
<path fill="#0f0c45" opacity="1.00" d=" M 148.00 16.01 C 164.81 7.74 183.23 2.25 202.04 1.76 C 209.39 1.72 216.75 1.42 224.08 2.13 C 250.28 4.40 275.37 14.28 297.51 28.22 C 291.80 33.66 286.23 39.25 280.56 44.73 C 272.13 40.59 264.14 35.37 255.09 32.61 C 240.82 28.22 225.99 25.17 211.01 25.32 C 204.81 25.31 198.68 26.25 192.51 26.73 C 163.95 29.96 137.32 44.98 118.43 66.44 C 108.97 77.08 102.50 89.94 97.05 102.98 C 92.82 113.25 91.71 124.40 89.41 135.18 C 81.96 135.61 74.48 135.68 67.03 135.19 C 66.65 124.33 69.15 113.61 72.68 103.41 C 75.89 94.38 79.26 85.36 83.88 76.94 C 92.37 61.19 103.91 47.13 117.52 35.54 C 126.66 27.58 137.21 21.44 148.00 16.01 Z" />
<path fill="#0f0c45" opacity="1.00" d=" M 299.23 60.42 C 304.94 55.86 310.23 50.79 315.08 45.33 C 326.53 56.81 335.58 70.45 343.26 84.68 C 351.05 100.44 355.38 117.74 357.32 135.15 C 349.50 135.69 341.65 135.68 333.83 135.11 C 331.47 123.57 329.50 111.85 325.13 100.86 C 319.29 85.80 309.70 72.58 299.23 60.42 Z" />
<path fill="#0f0c45" opacity="1.00" d=" M 159.10 114.28 C 165.07 114.07 171.04 114.11 177.00 114.46 C 177.37 122.07 177.28 129.69 177.25 137.31 C 184.63 137.66 192.20 136.33 199.40 138.55 C 201.47 144.47 200.34 150.78 200.18 156.89 C 192.63 157.11 185.07 157.11 177.52 157.48 C 177.28 165.08 177.28 172.69 177.02 180.29 C 171.04 180.62 165.05 180.62 159.08 180.31 C 158.79 172.69 158.80 165.06 158.60 157.44 C 151.01 157.12 143.40 157.10 135.81 156.86 C 135.38 150.42 135.39 143.95 135.75 137.50 C 143.45 137.15 151.16 137.18 158.87 137.29 C 158.83 129.62 158.77 121.95 159.10 114.28 Z" />
<path fill="#0f0c45" opacity="1.00" d=" M 236.97 140.77 C 243.61 139.69 250.34 139.21 257.07 139.36 C 269.11 139.64 281.17 138.92 293.19 139.82 C 294.01 146.00 294.04 152.25 293.59 158.47 C 274.68 158.83 255.74 159.03 236.83 158.41 C 236.63 152.53 236.54 146.64 236.97 140.77 Z" />
<path fill="#0f0c45" opacity="1.00" d=" M 67.53 159.31 C 74.84 158.82 82.18 158.84 89.48 159.37 C 91.67 168.50 93.36 177.78 96.53 186.65 C 102.95 204.01 113.11 220.07 126.55 232.85 C 121.50 238.37 116.16 243.62 110.74 248.77 C 107.17 245.83 103.71 242.72 100.80 239.11 C 92.32 228.59 84.35 217.47 78.97 205.00 C 72.61 190.55 69.50 174.91 67.53 159.31 Z" />
<path fill="#0f0c45" opacity="1.00" d=" M 333.57 159.23 C 341.49 158.83 349.43 158.79 357.34 159.32 C 354.16 184.64 344.82 209.20 330.14 230.09 C 326.05 236.22 320.64 241.28 315.66 246.66 C 304.35 258.66 290.87 268.56 276.27 276.19 C 249.53 289.82 218.43 294.18 188.84 289.68 C 177.46 287.90 166.18 285.03 155.70 280.17 C 146.40 276.03 137.77 270.58 129.00 265.46 C 133.58 258.83 139.25 252.99 145.20 247.56 C 155.56 255.17 167.69 259.99 180.07 263.18 C 188.59 265.33 197.25 267.16 206.05 267.61 C 221.19 268.46 236.42 266.11 250.86 261.57 C 266.95 256.43 281.34 247.03 294.09 236.10 C 299.24 231.90 303.44 226.69 307.52 221.49 C 316.40 209.91 323.41 196.88 327.95 183.00 C 330.51 175.25 331.61 167.13 333.57 159.23 Z" />
</g>
<g id="#453378ff">
<path fill="#453378" opacity="1.00" d=" M 486.76 35.25 C 529.42 35.25 572.08 35.25 614.75 35.25 C 614.75 49.50 614.74 63.74 614.75 77.99 C 600.54 78.02 586.33 77.98 572.12 78.01 C 572.13 149.00 572.13 220.00 572.12 290.99 C 586.33 291.02 600.54 290.98 614.75 291.01 C 614.74 305.26 614.75 319.50 614.75 333.75 C 572.09 333.75 529.42 333.75 486.76 333.75 C 486.74 319.50 486.75 305.25 486.75 291.01 C 500.96 290.99 515.17 291.01 529.37 290.99 C 529.38 220.00 529.38 149.00 529.37 78.01 C 515.17 77.99 500.96 78.01 486.75 77.99 C 486.75 63.75 486.74 49.50 486.76 35.25 Z" />
<path fill="#453378" opacity="1.00" d=" M 675.13 35.25 C 689.37 35.25 703.62 35.25 717.87 35.25 C 717.89 63.66 717.86 92.08 717.88 120.49 C 727.97 120.54 738.06 120.43 748.14 120.54 C 776.50 148.98 804.93 177.35 833.32 205.75 C 837.38 205.74 841.45 205.77 845.52 205.72 C 845.47 148.90 845.51 92.08 845.50 35.26 C 859.74 35.24 873.99 35.26 888.24 35.25 C 888.26 134.75 888.26 234.25 888.24 333.75 C 873.99 333.74 859.74 333.76 845.50 333.74 C 845.49 305.33 845.50 276.92 845.49 248.51 C 835.44 248.50 825.40 248.49 815.35 248.51 C 786.88 220.12 758.50 191.64 730.03 163.24 C 725.98 163.26 721.93 163.24 717.88 163.25 C 717.86 220.09 717.89 276.92 717.87 333.75 C 703.62 333.75 689.38 333.75 675.13 333.75 C 675.11 234.25 675.12 134.75 675.13 35.25 Z" />
<path fill="#453378" opacity="1.00" d=" M 906.01 35.25 C 958.72 35.25 1011.43 35.27 1064.14 35.23 C 1081.63 52.63 1099.01 70.13 1116.50 87.53 C 1117.42 88.54 1118.60 89.40 1119.21 90.66 C 1119.36 153.25 1119.12 215.85 1119.33 278.44 C 1103.21 294.95 1086.72 311.11 1070.45 327.48 C 1068.16 329.45 1066.40 332.18 1063.81 333.68 C 1011.22 333.85 958.61 333.69 906.01 333.75 C 905.99 234.25 905.99 134.75 906.01 35.25 M 948.75 78.01 C 948.75 149.00 948.75 220.00 948.75 290.99 C 981.22 291.01 1013.69 290.98 1046.16 291.01 C 1056.29 280.95 1066.33 270.80 1076.47 260.75 C 1076.52 209.92 1076.51 159.09 1076.48 108.26 C 1066.34 98.20 1056.29 88.06 1046.17 77.99 C 1013.69 78.01 981.22 77.99 948.75 78.01 Z" />
<path fill="#453378" opacity="1.00" d=" M 1234.48 35.29 C 1240.51 35.21 1246.54 35.26 1252.59 35.26 C 1285.09 67.82 1317.67 100.29 1350.14 132.87 C 1350.09 199.83 1350.15 266.79 1350.11 333.75 C 1335.87 333.75 1321.62 333.76 1307.38 333.74 C 1307.37 305.33 1307.38 276.92 1307.37 248.51 C 1264.83 248.50 1222.29 248.50 1179.75 248.51 C 1179.74 276.92 1179.76 305.34 1179.75 333.75 C 1165.50 333.75 1151.26 333.74 1137.01 333.75 C 1136.97 266.79 1137.03 199.82 1136.98 132.86 C 1169.44 100.30 1202.03 67.86 1234.48 35.29 M 1243.53 87.01 C 1222.30 108.32 1200.96 129.54 1179.74 150.86 C 1179.77 169.16 1179.73 187.45 1179.76 205.75 C 1222.26 205.79 1264.77 205.67 1307.28 205.81 C 1307.51 187.49 1307.30 169.16 1307.38 150.84 C 1286.11 129.55 1264.85 108.25 1243.53 87.01 Z" />
<path fill="#453378" opacity="1.00" d=" M 1367.89 90.28 C 1386.26 71.95 1404.59 53.57 1422.96 35.24 C 1457.32 35.25 1491.68 35.25 1526.04 35.25 C 1544.41 53.54 1562.67 71.94 1581.07 90.21 C 1581.08 100.37 1581.31 110.55 1580.96 120.70 C 1570.81 120.47 1560.67 120.77 1550.53 120.55 C 1536.45 106.29 1522.21 92.18 1508.05 78.00 C 1485.68 78.00 1463.31 78.00 1440.94 78.00 C 1430.83 88.06 1420.80 98.20 1410.66 108.24 C 1410.61 159.09 1410.58 209.94 1410.67 260.79 C 1420.82 270.80 1430.83 280.94 1440.94 291.00 C 1473.42 291.00 1505.89 291.00 1538.37 290.99 C 1538.38 276.83 1538.38 262.67 1538.37 248.51 C 1524.16 248.48 1509.95 248.53 1495.75 248.49 C 1495.75 234.24 1495.74 220.00 1495.76 205.76 C 1524.21 205.74 1552.66 205.74 1581.12 205.76 C 1581.13 248.42 1581.13 291.08 1581.12 333.75 C 1528.49 333.71 1475.86 333.83 1423.25 333.68 C 1404.48 315.82 1386.46 296.96 1367.92 278.77 C 1367.83 215.94 1367.88 153.11 1367.89 90.28 Z" />
<path fill="#453378" opacity="1.00" d=" M 1641.51 35.25 C 1684.17 35.25 1726.83 35.25 1769.49 35.25 C 1769.51 49.50 1769.50 63.75 1769.50 78.00 C 1755.29 78.01 1741.08 77.99 1726.88 78.01 C 1726.87 149.00 1726.87 220.00 1726.88 290.99 C 1741.08 291.01 1755.29 290.99 1769.50 291.00 C 1769.51 305.24 1769.48 319.48 1769.51 333.73 C 1726.84 333.78 1684.18 333.73 1641.51 333.75 C 1641.48 319.50 1641.49 305.25 1641.50 291.00 C 1655.71 290.99 1669.91 291.01 1684.12 290.99 C 1684.12 220.00 1684.12 149.00 1684.12 78.01 C 1669.91 77.99 1655.70 78.01 1641.50 78.00 C 1641.50 63.75 1641.48 49.50 1641.51 35.25 Z" />
<path fill="#453378" opacity="1.00" d=" M 1829.88 35.25 C 1844.09 35.25 1858.29 35.24 1872.50 35.26 C 1872.50 63.67 1872.50 92.08 1872.51 120.49 C 1882.56 120.48 1892.62 120.54 1902.69 120.46 C 1931.26 148.80 1959.59 177.39 1988.12 205.77 C 1992.15 205.73 1996.19 205.76 2000.24 205.75 C 2000.26 148.92 2000.24 92.08 2000.25 35.25 C 2014.49 35.24 2028.74 35.26 2042.99 35.25 C 2043.01 134.75 2043.01 234.25 2042.99 333.75 C 2028.74 333.74 2014.49 333.75 2000.25 333.75 C 2000.24 305.33 2000.26 276.92 2000.25 248.51 C 1990.24 248.52 1980.24 248.44 1970.24 248.56 C 1941.62 220.24 1913.31 191.62 1884.77 163.24 C 1880.72 163.51 1876.34 162.75 1872.53 163.60 C 1872.46 220.31 1872.52 277.03 1872.50 333.74 C 1858.29 333.76 1844.09 333.75 1829.88 333.75 C 1829.87 234.25 1829.87 134.75 1829.88 35.25 Z" />
<path fill="#453378" opacity="1.00" d=" M 2060.76 35.26 C 2131.84 35.24 2202.92 35.25 2274.00 35.25 L 2274.00 78.00 C 2217.17 78.00 2160.34 77.99 2103.51 78.01 C 2103.50 106.38 2103.49 134.74 2103.51 163.11 C 2146.13 163.14 2188.75 163.11 2231.37 163.13 C 2231.38 177.37 2231.38 191.62 2231.37 205.87 C 2188.75 205.89 2146.13 205.86 2103.51 205.88 C 2103.49 234.25 2103.50 262.62 2103.51 290.99 C 2160.34 291.01 2217.17 291.00 2274.00 291.00 L 2274.00 333.75 C 2202.92 333.75 2131.84 333.75 2060.76 333.75 C 2060.74 234.25 2060.74 134.75 2060.76 35.26 Z" />
<path fill="#453378" opacity="1.00" d=" M 11.98 149.23 C 22.00 149.17 32.02 149.12 42.04 149.29 C 43.47 168.91 46.85 188.56 54.04 206.94 C 62.72 227.99 74.77 247.91 91.00 264.01 C 114.27 288.83 145.72 305.51 179.01 312.09 C 189.89 314.08 200.95 315.25 212.01 315.54 C 233.70 314.54 255.55 311.09 275.72 302.76 C 303.17 291.63 327.84 273.28 345.54 249.44 C 361.64 228.53 373.05 203.96 377.99 178.00 C 379.71 168.50 380.44 158.87 381.18 149.26 C 390.78 149.06 400.38 149.20 409.97 149.26 C 411.43 177.96 404.02 205.98 398.48 233.88 C 395.82 252.31 395.57 271.82 402.64 289.36 C 409.47 305.74 421.53 320.65 438.04 327.93 C 449.00 332.58 457.77 342.46 460.47 354.13 C 463.25 367.96 460.12 384.44 448.08 393.12 C 438.30 400.40 425.08 402.50 413.37 399.44 C 402.08 395.85 394.16 385.87 389.57 375.36 C 384.56 363.38 376.13 352.92 365.66 345.27 C 353.12 335.89 337.50 331.44 322.02 330.51 C 306.73 329.70 291.69 333.26 276.97 336.95 C 263.20 340.46 249.30 343.71 235.14 345.16 C 193.09 349.64 149.47 341.36 112.69 320.27 C 64.00 292.66 28.07 243.65 16.49 188.88 C 13.92 175.83 11.50 162.59 11.98 149.23 Z" />
</g>
</svg>
