<?xml version="1.0" encoding="UTF-8" ?>
<!DOCTYPE svg PUBLIC "-//W3C//DTD SVG 1.1//EN" "http://www.w3.org/Graphics/SVG/1.1/DTD/svg11.dtd">
<svg width="897pt" height="214pt" viewBox="0 0 897 214" version="1.1" xmlns="http://www.w3.org/2000/svg">
<g id="#eaa523ff">
<path fill="#eaa523" opacity="1.00" d=" M 70.54 1.67 C 89.90 -1.97 110.57 0.56 128.02 9.92 C 156.04 24.07 175.21 54.45 175.01 85.96 C 175.70 108.69 166.18 131.19 150.35 147.35 C 137.80 160.50 120.96 169.36 103.10 172.60 C 84.11 175.92 64.04 172.91 47.00 163.84 C 25.86 152.98 9.94 132.81 3.61 109.96 C 1.47 102.83 0.90 95.37 0.17 88.00 C 0.57 72.20 4.38 56.22 12.76 42.68 C 25.13 21.72 46.62 6.34 70.54 1.67 M 20.79 61.02 C 18.35 67.46 19.36 75.53 24.68 80.26 C 28.50 84.22 34.25 84.99 39.49 84.74 C 40.01 73.02 44.70 61.41 53.05 53.08 C 61.64 44.10 73.76 39.09 86.12 38.62 C 86.06 34.85 86.53 30.82 84.63 27.38 C 81.28 20.76 73.10 17.00 65.91 19.02 C 45.19 24.51 28.05 40.98 20.79 61.02 M 92.20 25.09 C 89.19 28.97 89.29 34.12 89.43 38.78 C 101.32 39.17 113.14 43.93 121.52 52.45 C 130.41 60.82 135.29 72.92 135.81 85.03 C 128.38 85.20 120.94 84.92 113.51 84.95 C 113.60 85.72 113.77 87.26 113.86 88.04 C 114.09 88.23 114.54 88.62 114.77 88.81 C 121.80 88.43 128.85 88.68 135.88 88.65 C 135.16 100.10 131.12 111.69 122.97 119.99 C 114.45 129.33 102.02 134.71 89.44 135.17 C 89.42 139.14 89.18 143.32 91.03 146.97 C 94.21 152.84 101.31 156.48 107.93 155.20 C 115.47 153.72 122.43 150.12 128.66 145.70 C 140.30 137.18 149.77 125.47 154.83 111.90 C 157.29 105.11 156.19 96.45 150.17 91.85 C 146.27 88.26 140.76 87.86 135.74 88.26 C 135.76 87.50 135.81 85.97 135.83 85.21 C 138.97 85.25 142.21 85.18 145.16 83.98 C 150.93 81.85 154.96 76.11 155.67 70.09 C 156.46 62.00 152.06 54.67 148.09 47.99 C 139.13 34.07 125.08 23.19 108.97 19.03 C 102.81 17.25 95.93 19.99 92.20 25.09 M 86.31 38.67 C 86.36 45.47 86.28 52.26 86.37 59.06 C 87.10 59.05 88.58 59.01 89.31 59.00 C 89.40 52.24 89.40 45.48 89.40 38.71 C 88.62 38.70 87.08 38.68 86.31 38.67 M 62.02 85.07 C 54.57 84.77 47.11 84.98 39.66 84.93 C 39.62 85.65 39.56 87.08 39.52 87.80 C 31.73 86.68 23.27 90.69 20.55 98.34 C 17.68 105.64 20.55 113.44 24.02 119.97 C 32.25 136.86 47.93 149.81 65.93 155.04 C 72.67 156.81 80.28 153.87 83.91 147.90 C 86.53 144.20 86.14 139.49 86.32 135.21 C 74.72 134.69 63.12 130.44 54.66 122.33 C 45.21 113.83 40.00 101.23 39.54 88.63 C 47.01 88.63 54.48 88.59 61.95 88.63 C 62.06 101.61 73.07 113.34 86.11 113.90 C 86.11 109.80 86.10 105.69 86.13 101.58 C 79.86 100.33 75.21 94.82 74.34 88.59 C 70.20 88.62 66.05 88.61 61.91 88.55 C 61.92 87.73 61.94 86.08 61.96 85.26 C 66.11 85.25 70.27 85.28 74.43 85.28 C 75.35 79.04 79.88 73.43 86.35 72.54 C 86.32 68.05 86.35 63.55 86.31 59.06 C 73.02 59.66 61.79 71.83 62.02 85.07 M 89.46 59.04 C 89.39 63.54 89.47 68.03 89.40 72.53 C 95.60 73.73 100.11 79.13 100.98 85.26 C 105.15 85.26 109.32 85.24 113.49 85.21 C 113.22 72.14 102.60 60.23 89.46 59.04 M 89.42 101.33 C 89.42 105.51 89.43 109.69 89.40 113.87 C 99.28 113.02 108.34 106.34 111.65 96.94 C 112.28 94.44 114.01 91.72 112.83 89.16 C 109.07 87.85 104.91 88.90 100.99 88.60 C 100.17 94.74 95.64 100.18 89.42 101.33 M 86.44 114.16 C 86.09 121.11 86.32 128.08 86.32 135.04 C 87.08 135.01 88.61 134.94 89.37 134.91 C 89.42 127.88 89.42 120.85 89.33 113.82 C 88.61 113.90 87.17 114.07 86.44 114.16 Z" />
<path fill="#eaa523" opacity="1.00" d=" M 413.85 46.99 C 413.71 36.06 414.05 25.15 414.25 14.22 C 425.65 15.85 435.07 26.37 435.15 37.95 C 435.07 58.28 435.34 78.62 434.90 98.94 C 435.37 104.98 434.98 111.04 434.32 117.06 C 431.58 135.57 418.07 151.88 400.56 158.39 C 376.76 168.16 347.31 155.84 335.99 133.13 C 328.04 118.37 328.22 99.72 335.84 84.87 C 341.12 74.11 349.78 64.70 360.86 59.83 C 374.27 53.75 390.51 53.32 403.72 60.18 C 407.41 61.85 410.32 64.91 414.20 66.22 C 413.46 59.82 414.33 53.40 413.85 46.99 M 379.67 79.09 C 366.77 79.60 355.79 90.01 352.57 102.17 C 351.98 106.35 352.04 110.64 352.51 114.82 C 354.45 122.76 359.58 129.94 366.53 134.28 C 378.19 141.48 394.51 138.64 403.74 128.74 C 408.82 123.10 412.12 115.64 411.84 107.96 C 412.38 100.99 409.26 94.32 404.93 89.05 C 398.83 81.82 388.98 78.31 379.67 79.09 Z" />
<path fill="#eaa523" opacity="1.00" d=" M 670.71 16.95 C 679.18 15.58 686.83 23.77 685.76 32.07 C 685.10 41.42 672.74 47.04 665.15 41.77 C 658.64 37.51 657.18 27.23 662.47 21.45 C 664.47 18.89 667.41 17.11 670.71 16.95 Z" />
<path fill="#eaa523" opacity="1.00" d=" M 204.27 18.19 C 206.07 17.35 208.08 17.24 210.00 16.80 C 212.86 17.31 215.91 17.76 218.16 19.78 C 224.74 24.79 224.91 36.23 218.16 41.16 C 212.54 45.50 203.63 44.22 199.37 38.57 C 194.33 32.22 197.07 21.69 204.27 18.19 Z" />
<path fill="#eaa523" opacity="1.00" d=" M 262.11 56.43 C 284.47 49.05 310.68 61.36 320.77 82.29 C 324.58 89.92 326.22 98.56 325.90 107.06 C 325.89 124.99 325.84 142.93 325.84 160.86 C 318.34 160.88 310.84 160.81 303.33 160.85 C 303.42 142.21 303.33 123.58 303.32 104.95 C 303.35 97.09 299.92 89.27 293.95 84.12 C 284.00 74.97 266.80 74.50 257.00 84.13 C 252.06 89.10 248.21 95.78 248.40 102.97 C 248.33 122.27 248.37 141.56 248.40 160.86 C 241.00 160.80 233.60 160.87 226.20 160.79 C 226.28 145.86 226.16 130.93 226.27 116.00 C 226.39 108.29 225.67 100.46 227.62 92.90 C 231.72 75.89 245.11 61.17 262.11 56.43 Z" />
<path fill="#eaa523" opacity="1.00" d=" M 456.20 69.25 C 465.86 60.37 478.84 54.82 492.06 55.05 C 517.49 54.28 541.10 75.15 544.59 100.15 C 545.61 106.38 545.60 112.72 545.29 119.00 C 544.94 132.93 545.10 146.84 545.15 160.77 C 538.73 160.85 532.31 160.77 525.89 160.76 C 525.90 156.83 525.88 152.89 525.73 148.97 C 519.51 153.23 513.22 157.65 505.85 159.70 C 490.16 164.61 472.62 160.06 459.88 150.09 C 448.75 141.79 441.67 128.57 440.12 114.85 C 437.75 98.23 443.91 80.71 456.20 69.25 M 483.51 79.74 C 472.78 82.58 464.58 92.20 462.03 102.81 C 458.64 118.20 470.07 134.54 485.25 137.77 C 491.18 139.08 497.45 138.24 503.04 135.95 C 517.80 130.25 525.72 111.36 519.42 96.85 C 514.24 82.99 497.50 75.36 483.51 79.74 Z" />
<path fill="#eaa523" opacity="1.00" d=" M 198.56 54.49 C 211.71 56.33 221.12 69.12 221.23 82.00 C 221.74 108.27 221.29 134.55 221.48 160.82 C 213.87 160.87 206.25 160.76 198.64 160.83 C 198.66 125.38 198.56 89.93 198.56 54.49 Z" />
<path fill="#eaa523" opacity="1.00" d=" M 564.20 71.27 C 574.51 60.17 589.89 53.99 605.02 54.92 C 620.36 55.67 634.78 63.92 644.46 75.64 C 650.89 84.37 655.08 95.04 654.83 105.99 C 655.32 123.34 655.10 140.69 655.14 158.03 C 654.89 163.84 654.91 169.77 653.21 175.38 C 649.28 189.23 639.14 201.04 626.48 207.72 C 613.29 214.34 597.22 215.27 583.53 209.60 C 571.35 204.34 560.73 194.59 556.01 182.01 C 554.15 177.74 552.90 173.24 552.26 168.63 C 559.96 168.58 567.67 168.54 575.38 168.55 C 577.09 177.36 584.18 184.31 592.09 188.00 C 605.90 194.17 623.54 187.95 630.97 174.93 C 635.20 166.40 635.06 156.56 635.08 147.26 C 625.91 156.35 612.82 160.94 600.00 160.48 C 581.89 159.75 564.40 149.09 555.99 132.94 C 550.16 122.66 548.18 110.44 549.91 98.79 C 551.65 88.43 557.09 78.91 564.20 71.27 M 585.20 82.96 C 576.81 87.82 572.15 97.51 571.88 107.01 C 572.27 110.25 572.04 113.60 573.10 116.74 C 576.95 128.51 588.44 137.65 601.00 137.66 C 616.38 138.55 630.86 125.45 631.68 110.09 C 633.26 95.96 622.76 81.59 608.86 78.72 C 600.80 77.19 592.27 78.88 585.20 82.96 Z" />
<path fill="#eaa523" opacity="1.00" d=" M 660.63 54.45 C 673.48 56.01 683.27 68.32 683.18 81.04 C 683.27 107.66 683.32 134.29 683.23 160.91 C 675.68 160.78 668.13 160.90 660.59 160.84 C 660.60 125.38 660.52 89.91 660.63 54.45 Z" />
<path fill="#eaa523" opacity="1.00" d=" M 705.39 67.35 C 713.99 59.64 725.32 54.81 736.97 55.07 C 752.64 54.41 768.15 61.98 777.66 74.37 C 783.79 82.24 787.38 92.00 787.98 101.94 C 788.18 121.54 787.65 141.15 787.99 160.75 C 780.51 160.86 773.02 160.75 765.54 160.85 C 765.50 144.90 765.54 128.95 765.53 113.00 C 765.48 107.99 765.87 102.87 764.48 98.00 C 762.79 91.21 758.36 85.19 752.49 81.43 C 744.62 76.69 734.45 76.50 726.18 80.33 C 716.54 84.77 709.81 95.31 710.51 106.00 C 710.45 124.26 710.49 142.52 710.46 160.78 C 703.36 160.74 696.25 160.84 689.15 160.80 C 689.33 150.20 688.36 139.60 689.07 129.00 C 688.96 124.00 688.71 119.00 688.87 114.00 C 688.86 112.00 688.85 110.00 688.84 108.00 C 688.25 92.95 693.90 77.37 705.39 67.35 Z" />
<path fill="#eaa523" opacity="1.00" d=" M 830.28 57.21 C 840.58 54.32 851.79 54.37 861.95 57.83 C 877.24 63.05 889.40 76.10 894.25 91.42 C 897.02 99.88 896.68 108.92 896.18 117.69 C 869.51 117.61 842.85 117.60 816.18 117.76 C 819.58 127.49 827.60 136.13 837.99 138.14 C 842.30 138.74 846.73 138.80 851.03 138.11 C 858.59 136.63 864.74 131.40 869.32 125.44 C 877.56 125.30 885.80 125.30 894.03 125.49 C 888.19 142.27 873.81 156.06 856.41 160.19 C 832.47 166.67 805.45 152.13 796.53 129.23 C 790.48 115.32 790.84 98.85 797.31 85.14 C 803.55 71.66 815.88 61.04 830.28 57.21 M 816.69 99.61 C 835.42 99.60 854.15 99.81 872.88 99.59 C 869.57 88.59 859.61 79.62 848.03 78.44 C 834.35 76.49 819.75 86.05 816.69 99.61 Z" />
</g>
</svg>
