<?xml version="1.0" encoding="UTF-8" ?>
<!DOCTYPE svg PUBLIC "-//W3C//DTD SVG 1.1//EN" "http://www.w3.org/Graphics/SVG/1.1/DTD/svg11.dtd">
<svg width="622pt" height="622pt" viewBox="0 0 622 622" version="1.1" xmlns="http://www.w3.org/2000/svg">
<g id="#fffefdff">
</g>
<g id="#e9a525ff">
<path fill="#e9a525" opacity="1.00" d=" M 286.45 2.54 C 326.36 -0.39 366.85 3.71 404.96 16.12 C 474.31 38.75 535.88 85.52 574.06 147.94 C 588.38 169.95 598.32 194.41 606.75 219.17 C 616.24 250.78 620.88 283.84 620.67 316.84 C 618.75 387.12 591.72 456.47 545.40 509.39 C 480.29 587.37 374.31 628.76 273.58 615.48 C 235.71 611.45 199.22 598.77 165.46 581.46 C 132.27 564.50 103.28 540.19 78.36 512.66 C 56.72 486.43 37.49 457.76 25.01 425.98 C 2.13 370.88 -4.09 308.89 7.45 250.36 C 15.00 215.58 27.15 181.46 46.32 151.32 C 87.73 81.80 157.64 29.47 236.43 10.55 C 252.84 6.48 269.60 3.82 286.45 2.54 M 234.41 68.45 C 210.03 74.96 186.80 85.70 165.91 99.86 C 138.51 117.56 116.07 142.03 98.05 169.05 C 86.19 187.19 76.65 206.94 70.70 227.82 C 64.50 252.52 75.07 281.62 98.10 293.83 C 110.74 301.63 126.15 302.66 140.62 301.78 C 141.53 276.94 146.97 251.92 158.99 229.99 C 172.56 202.77 194.28 180.06 220.01 164.02 C 245.35 147.31 275.77 139.75 305.86 138.47 C 306.05 126.58 306.38 114.28 301.94 103.03 C 291.90 77.19 261.35 61.33 234.41 68.45 M 317.38 112.12 C 316.67 120.91 316.83 129.73 316.63 138.53 C 313.98 138.69 308.68 139.01 306.03 139.17 C 306.07 163.02 305.69 186.87 306.32 210.71 C 309.66 210.91 312.95 211.01 316.31 211.17 C 317.74 187.08 316.69 162.93 317.02 138.81 C 333.19 140.12 349.45 142.09 364.92 147.19 C 393.04 156.67 418.84 173.20 438.54 195.49 C 453.11 211.41 463.39 230.72 471.31 250.67 C 477.12 267.42 480.06 285.05 480.77 302.75 C 454.50 303.34 428.21 302.83 401.93 303.01 C 402.07 307.26 402.20 311.51 402.38 315.77 C 428.64 316.31 454.90 315.83 481.16 316.03 C 478.88 352.32 467.36 388.67 444.07 417.06 C 413.69 455.37 365.82 479.18 316.94 480.26 C 317.21 494.47 315.15 510.31 323.07 522.96 C 334.12 543.32 358.57 555.70 381.56 551.44 C 401.95 547.90 421.12 539.20 438.98 528.98 C 473.72 507.85 503.23 478.39 525.32 444.32 C 537.09 424.81 548.44 404.33 552.61 381.67 C 553.69 368.23 552.25 353.74 544.83 342.12 C 537.54 328.90 524.32 319.07 509.71 315.49 C 500.40 312.69 490.54 314.31 481.00 313.90 C 481.00 311.25 481.01 305.95 481.01 303.30 C 484.75 303.16 492.24 302.87 495.98 302.73 C 510.19 302.38 524.09 296.13 534.16 286.18 C 544.23 275.20 551.10 261.01 551.83 245.97 C 552.43 225.73 544.19 206.56 534.94 189.01 C 520.38 162.80 502.30 138.13 479.18 118.82 C 460.94 102.84 440.50 89.28 418.09 79.89 C 405.57 74.77 392.89 69.60 379.47 67.41 C 351.24 63.26 322.28 84.01 317.38 112.12 M 278.67 216.63 C 256.26 225.26 237.83 243.13 228.09 265.05 C 222.29 276.74 220.60 289.91 219.36 302.77 C 193.30 303.31 167.24 302.84 141.18 303.03 C 140.96 306.26 140.72 309.46 140.51 312.71 C 129.88 313.20 118.91 312.08 108.66 315.53 C 95.83 319.42 84.84 328.54 77.96 339.96 C 65.84 358.57 66.55 383.12 74.75 403.16 C 83.14 425.54 94.68 446.74 109.40 465.61 C 138.53 504.56 180.36 532.91 226.07 548.83 C 239.15 553.41 253.55 553.52 266.84 549.76 C 283.40 543.98 297.12 530.50 302.95 513.93 C 306.75 503.12 305.95 491.45 306.13 480.20 C 272.77 479.27 239.52 469.02 212.07 449.92 C 168.80 420.06 141.06 368.68 140.80 316.01 C 167.09 315.96 193.39 316.11 219.68 315.76 C 220.31 323.25 221.21 330.74 222.99 338.08 C 232.77 375.02 267.72 403.43 305.98 405.21 C 306.04 390.57 306.05 375.93 305.91 361.30 C 283.49 357.43 265.89 337.52 263.81 315.03 C 249.21 315.00 234.60 314.97 220.00 314.99 C 220.00 311.06 220.02 307.13 220.04 303.21 C 234.78 304.40 249.60 304.09 264.37 303.66 C 266.00 294.10 268.72 284.54 274.76 276.76 C 282.18 266.66 294.18 261.05 306.22 258.71 C 306.07 242.74 306.03 226.77 305.91 210.80 C 296.69 211.93 287.41 213.38 278.67 216.63 M 317.04 210.74 C 316.96 226.76 316.94 242.77 317.05 258.79 C 326.40 261.43 335.81 265.20 342.71 272.29 C 351.08 280.79 355.63 292.38 357.40 304.04 C 372.18 303.69 386.96 302.99 401.74 302.56 C 400.59 277.94 390.24 253.72 372.34 236.66 C 357.78 221.71 337.54 213.22 317.04 210.74 M 357.56 315.16 C 355.59 323.37 353.82 331.88 349.03 338.99 C 341.94 350.23 329.83 357.42 317.07 360.34 C 316.95 375.00 316.95 389.66 317.03 404.33 C 341.27 402.83 364.78 390.97 380.01 372.01 C 393.27 356.17 400.19 335.89 402.20 315.52 C 387.34 314.56 372.43 314.92 357.56 315.16 M 306.03 406.11 C 306.07 430.68 305.68 455.25 306.32 479.81 C 309.81 479.84 313.27 479.73 316.77 479.70 C 317.04 454.75 317.56 429.78 316.35 404.85 C 312.92 405.31 309.46 405.74 306.03 406.11 Z" />
</g>
</svg>
