<?xml version="1.0" encoding="UTF-8" ?>
<!DOCTYPE svg PUBLIC "-//W3C//DTD SVG 1.1//EN" "http://www.w3.org/Graphics/SVG/1.1/DTD/svg11.dtd">
<svg width="318pt" height="318pt" viewBox="0 0 318 318" version="1.1" xmlns="http://www.w3.org/2000/svg">
<g id="#453378ff">
<path fill="#453378" opacity="1.00" d=" M 84.21 52.14 C 99.69 41.58 118.00 34.04 137.00 34.54 C 157.44 33.69 177.54 40.75 194.64 51.54 C 190.98 55.02 187.40 58.59 183.80 62.12 C 178.22 59.44 173.01 55.93 167.00 54.22 C 155.40 50.67 143.07 48.54 130.96 50.25 C 110.85 51.36 91.89 61.71 78.89 76.90 C 73.33 83.40 69.43 91.12 66.11 98.96 C 63.24 105.71 62.41 113.05 61.03 120.19 C 56.24 120.57 51.42 120.55 46.62 120.25 C 46.24 111.06 49.20 102.15 52.51 93.70 C 58.66 77.11 70.03 62.63 84.21 52.14 Z" />
<path fill="#453378" opacity="1.00" d=" M 195.78 72.22 C 199.45 69.31 202.85 66.06 205.94 62.54 C 213.35 69.94 219.15 78.78 224.13 87.94 C 229.04 98.04 231.85 109.08 233.07 120.22 C 228.05 120.57 223.01 120.57 218.00 120.19 C 216.36 112.09 214.99 103.85 211.61 96.25 C 207.85 87.34 202.05 79.51 195.78 72.22 Z" />
<path fill="#453378" opacity="1.00" d=" M 105.75 106.84 C 109.58 106.68 113.41 106.71 117.24 106.95 C 117.47 111.83 117.43 116.72 117.38 121.61 C 122.08 121.92 127.07 120.92 131.56 122.44 C 133.08 126.13 132.14 130.30 132.14 134.19 C 127.28 134.34 122.42 134.31 117.56 134.56 C 117.40 139.44 117.42 144.33 117.25 149.22 C 113.41 149.44 109.57 149.44 105.74 149.23 C 105.54 144.34 105.57 139.44 105.44 134.54 C 100.56 134.32 95.67 134.33 90.79 134.17 C 90.50 130.03 90.50 125.88 90.76 121.74 C 95.71 121.52 100.66 121.55 105.61 121.61 C 105.56 116.69 105.54 111.76 105.75 106.84 Z" />
<path fill="#453378" opacity="1.00" d=" M 155.78 123.85 C 160.15 123.13 164.58 122.83 169.01 122.95 C 176.63 123.12 184.26 122.66 191.87 123.24 C 192.42 127.20 192.43 131.21 192.13 135.20 C 180.00 135.49 167.86 135.48 155.74 135.23 C 155.50 131.44 155.50 127.64 155.78 123.85 Z" />
<path fill="#453378" opacity="1.00" d=" M 46.93 135.76 C 51.62 135.44 56.32 135.45 61.01 135.80 C 62.57 142.25 63.69 148.84 66.18 155.02 C 70.34 165.51 76.59 175.22 84.82 182.99 C 81.58 186.53 78.16 189.90 74.68 193.20 C 72.31 191.27 70.04 189.20 68.13 186.80 C 62.82 180.20 57.83 173.22 54.42 165.42 C 50.24 156.05 48.19 145.89 46.93 135.76 Z" />
<path fill="#453378" opacity="1.00" d=" M 217.85 135.70 C 222.92 135.44 228.01 135.42 233.08 135.76 C 230.92 153.27 224.06 170.28 213.35 184.31 C 206.81 191.47 200.19 198.75 192.01 204.09 C 169.87 220.21 140.17 224.41 113.99 217.18 C 104.01 214.51 95.09 209.22 86.37 203.83 C 89.51 199.74 92.95 195.88 96.82 192.46 C 105.70 199.03 116.57 202.25 127.29 204.29 C 139.47 206.62 152.12 205.29 163.92 201.71 C 175.63 198.14 185.94 191.06 194.94 182.92 C 203.51 173.93 210.22 163.09 214.13 151.29 C 215.86 146.22 216.53 140.88 217.85 135.70 Z" />
</g>
<g id="#0f0c45ff">
<path fill="#0f0c45" opacity="1.00" d=" M 11.24 129.28 C 17.67 129.23 24.11 129.22 30.54 129.32 C 31.43 142.01 33.66 154.73 38.33 166.61 C 43.93 180.03 51.59 192.77 62.00 203.02 C 75.32 217.29 92.94 227.35 111.76 232.35 C 120.62 234.79 129.83 235.67 138.98 236.17 C 149.83 235.76 160.69 234.25 171.15 231.29 C 188.79 225.97 205.08 216.14 217.84 202.83 C 229.85 189.80 239.39 174.19 244.11 157.03 C 246.97 148.06 247.73 138.64 248.42 129.30 C 254.58 129.19 260.74 129.23 266.90 129.31 C 267.84 147.78 263.09 165.76 259.48 183.70 C 257.64 196.82 257.61 211.03 263.92 223.05 C 268.46 232.07 275.62 240.01 284.98 244.12 C 293.57 247.74 300.05 256.49 299.87 265.97 C 300.19 272.39 298.42 279.17 293.80 283.83 C 287.64 290.09 278.02 292.12 269.62 290.17 C 262.01 288.00 256.75 281.33 253.72 274.33 C 248.29 261.43 236.59 251.37 223.07 247.81 C 217.19 246.18 211.07 245.40 204.97 245.70 C 192.37 246.25 180.40 250.56 168.12 252.99 C 134.93 260.04 98.83 254.27 70.26 235.68 C 40.20 216.52 18.81 184.29 13.07 149.08 C 11.88 142.55 10.98 135.94 11.24 129.28 Z" />
</g>
</svg>
